<?xml version="1.0" standalone="no"?>
<!DOCTYPE svg PUBLIC "-//W3C//DTD SVG 20010904//EN"
 "http://www.w3.org/TR/2001/REC-SVG-20010904/DTD/svg10.dtd">
<svg version="1.0" xmlns="http://www.w3.org/2000/svg"
 width="512.000000pt" height="512.000000pt" viewBox="0 0 512.000000 512.000000"
 preserveAspectRatio="xMidYMid meet">
<metadata>
Created by potrace 1.14, written by Peter Selinger 2001-2017
</metadata>
<g transform="translate(0.000000,512.000000) scale(0.100000,-0.100000)"
fill="#000000" stroke="none">
<path d="M3825 4804 c-132 -36 -247 -67 -255 -69 -79 -18 -341 -87 -362 -96
-32 -13 -41 -41 -22 -68 8 -11 64 -54 125 -96 l110 -76 -21 -37 c-114 -194
-367 -472 -627 -689 -457 -381 -1032 -696 -1708 -935 -167 -59 -270 -93 -293
-97 -25 -3 -54 -44 -59 -80 -5 -35 -2 -44 26 -72 l32 -31 92 6 c146 11 259 23
337 36 30 5 73 12 95 15 89 13 340 67 461 100 475 130 879 311 1251 561 67 45
128 87 135 93 7 6 65 52 128 103 103 82 347 317 441 423 42 48 156 189 185
229 l21 29 119 -81 c65 -45 126 -82 135 -82 10 0 25 7 34 16 17 17 17 29 -5
239 -6 50 -12 115 -15 145 -3 30 -8 71 -10 90 -3 19 -7 64 -10 100 -2 36 -7
81 -10 100 -2 19 -7 63 -9 97 -12 152 -27 194 -65 192 -9 0 -124 -30 -256 -65z"/>
<path d="M3944 3040 c-11 -4 -28 -20 -37 -34 -16 -23 -17 -124 -17 -1314 l0
-1289 -197 1 -198 1 -1 1018 -1 1018 -31 32 -31 31 -293 1 c-315 1 -332 -1
-364 -51 -15 -23 -17 -113 -17 -1039 l0 -1014 -197 1 -197 1 0 733 c0 538 -3
740 -12 761 -23 56 -30 58 -346 59 -319 2 -346 -2 -366 -53 -8 -20 -12 -248
-12 -765 l0 -736 -199 0 -198 1 0 463 c0 338 -3 470 -12 489 -24 52 -42 55
-361 55 -281 0 -295 -1 -320 -20 -15 -12 -30 -35 -35 -53 -4 -18 -8 -235 -7
-483 l0 -451 -224 -1 -224 0 -25 -26 c-23 -22 -25 -29 -16 -63 6 -24 18 -42
34 -50 20 -10 547 -12 2532 -10 2223 2 2509 4 2522 17 29 29 30 74 4 105 l-24
28 -225 1 -224 1 -1 1270 c-1 699 -2 1280 -3 1293 0 13 -14 37 -30 53 l-29 29
-299 -1 c-164 0 -307 -4 -319 -9z"/>
</g>
</svg>
